# xmcd CD database file
#
# Track frame offsets:
#	150
#	17953
#	35949
#	51378
#	83515
#	108144
#	143914
#
# Disc length: 3660 seconds
#
# Revision: 1
# Processed by: cddbd v1.5.2PL0 Copyright (c) Steve Scherf et al.
# Submitted via: CDex 1.70beta2
#
DISCID=5a0e4a07
DTITLE=DUKE ELLINGTON and HIS ORCHESTRA - THE CONNY PLANK SESSION
DYEAR=2015
DGENRE=Jazz
TTITLE0=ALERADO (TAKE 1)
TTITLE1=ALERADO (TAKE 2)
TTITLE2=ALERADO (TAKE 3)
TTITLE3=AFRIQUE (TAKE 1)
TTITLE4=AFRIQUE (TAKE 2)
TTITLE5=AFRIQUE (TAKE 3 - VOCAL VERSION)
TTITLE6=DATA
EXTD=YEAR: 2015
EXTT0=
EXTT1=
EXTT2=
EXTT3=
EXTT4=
EXTT5=
EXTT6=
PLAYORDER=
